<svg xmlns="http://www.w3.org/2000/svg" viewBox="0 0 1600 1020" width="1600" height="1020" style="background-color: #ffffff; font-family: Segoe UI, system-ui, -apple-system, sans-serif;">
  <defs>
    <marker id="arrow-req" viewBox="0 0 10 10" refX="7" refY="5" markerWidth="6" markerHeight="6" orient="auto-start-reverse">
      <path d="M 0 1.5 L 8 5 L 0 8.5 z" fill="#475569" />
    </marker>
    <marker id="arrow-llm" viewBox="0 0 10 10" refX="7" refY="5" markerWidth="6" markerHeight="6" orient="auto-start-reverse">
      <path d="M 0 1.5 L 8 5 L 0 8.5 z" fill="#b45309" />
    </marker>
    <marker id="arrow-write" viewBox="0 0 10 10" refX="7" refY="5" markerWidth="6" markerHeight="6" orient="auto-start-reverse">
      <path d="M 0 1.5 L 8 5 L 0 8.5 z" fill="#6d28d9" />
    </marker>
    <marker id="arrow-read" viewBox="0 0 10 10" refX="7" refY="5" markerWidth="6" markerHeight="6" orient="auto-start-reverse">
      <path d="M 0 1.5 L 8 5 L 0 8.5 z" fill="#0369a1" />
    </marker>
    <filter id="shadow" x="-5%" y="-5%" width="110%" height="115%" filterUnits="userSpaceOnUse">
      <feDropShadow dx="0" dy="2" stdDeviation="3" flood-color="#000000" flood-opacity="0.06"/>
    </filter>
  </defs>

  <!-- DIAGRAM TITLE -->
  <text x="80" y="42" font-size="22" font-weight="800" fill="#0f172a" letter-spacing="-0.5px">CareerGraph-AI — System Architecture &amp; Agentic Operating System</text>
  <text x="80" y="62" font-size="13" font-weight="500" fill="#64748b">Production Architecture: 5-Stage LangGraph DAG, 3-Tier OS Memory, AXTree Grounding &amp; Multi-Model Consensus</text>

  <!-- LAYER SWIMLANES -->
  <!-- Band L1 -->
  <rect x="50" y="75" width="1500" height="155" rx="12" fill="#eff6ff" stroke="#e2e8f0" stroke-width="1.2" />
  <text x="75" y="95" font-size="13" font-weight="700" fill="#2563eb" letter-spacing="0.5px">1. INTERFACE &amp; HUMAN-IN-THE-LOOP CHANNELS</text>
  <!-- Band L2 -->
  <rect x="50" y="255" width="1500" height="155" rx="12" fill="#ecfdf5" stroke="#e2e8f0" stroke-width="1.2" />
  <text x="75" y="275" font-size="13" font-weight="700" fill="#059669" letter-spacing="0.5px">2. MACRO ORCHESTRATION &amp; STATE MACHINE (LANGGRAPH)</text>
  <!-- Band L3 -->
  <rect x="50" y="435" width="1500" height="155" rx="12" fill="#fffbeb" stroke="#e2e8f0" stroke-width="1.2" />
  <text x="75" y="455" font-size="13" font-weight="700" fill="#b45309" letter-spacing="0.5px">3. SPECIALIZED MICRO-AGENTS &amp; ENGINES</text>
  <!-- Band L4 -->
  <rect x="50" y="615" width="1500" height="155" rx="12" fill="#f5f3ff" stroke="#e2e8f0" stroke-width="1.2" />
  <text x="75" y="635" font-size="13" font-weight="700" fill="#7c3aed" letter-spacing="0.5px">4. REASONING ENGINE &amp; COMPILER GATES</text>
  <!-- Band L5 -->
  <rect x="50" y="795" width="1500" height="195" rx="12" fill="#f0f9ff" stroke="#e2e8f0" stroke-width="1.2" />
  <text x="75" y="815" font-size="13" font-weight="700" fill="#0284c7" letter-spacing="0.5px">5. 3-TIER OS MEMORY &amp; PERSISTENT DATA STORES</text>

  <!-- EDGES / CONNECTIONS -->
  <polyline points="295,210 295,295" fill="none" stroke="#475569" stroke-width="2" marker-end="url(#arrow-req)" />
  <rect x="235" y="240" width="120" height="18" rx="4" fill="#ffffff" opacity="0.92"/>
  <text x="295" y="253" font-size="11" font-weight="600" font-style="italic" fill="#475569" text-anchor="middle">invoke pipeline</text>
  <polyline points="765,210 765,295" fill="none" stroke="#475569" stroke-width="2" marker-end="url(#arrow-req)" />
  <rect x="705" y="240" width="120" height="18" rx="4" fill="#ffffff" opacity="0.92"/>
  <text x="765" y="253" font-size="11" font-weight="600" font-style="italic" fill="#475569" text-anchor="middle">CLI batch run</text>
  <polyline points="1260,295 1260,210" fill="none" stroke="#475569" stroke-width="2" marker-end="url(#arrow-req)" />
  <rect x="1200" y="240" width="120" height="18" rx="4" fill="#ffffff" opacity="0.92"/>
  <text x="1260" y="253" font-size="11" font-weight="600" font-style="italic" fill="#475569" text-anchor="middle">interrupt() alert</text>
  <polyline points="180,390 180,475" fill="none" stroke="#475569" stroke-width="2" marker-end="url(#arrow-req)" />
  <rect x="120" y="425" width="120" height="18" rx="4" fill="#ffffff" opacity="0.92"/>
  <text x="180" y="438" font-size="11" font-weight="600" font-style="italic" fill="#475569" text-anchor="middle">Stage 1</text>
  <polyline points="350,390 350,430 510,430 510,475" fill="none" stroke="#475569" stroke-width="2" marker-end="url(#arrow-req)" />
  <rect x="450" y="425" width="120" height="18" rx="4" fill="#ffffff" opacity="0.92"/>
  <text x="510" y="438" font-size="11" font-weight="600" font-style="italic" fill="#475569" text-anchor="middle">Stage 2</text>
  <polyline points="820,390 820,430 920,430 920,475" fill="none" stroke="#475569" stroke-width="2" marker-end="url(#arrow-req)" />
  <rect x="860" y="425" width="120" height="18" rx="4" fill="#ffffff" opacity="0.92"/>
  <text x="920" y="438" font-size="11" font-weight="600" font-style="italic" fill="#475569" text-anchor="middle">Stage 3 (bounded)</text>
  <polyline points="1340,390 1340,475" fill="none" stroke="#475569" stroke-width="2" marker-end="url(#arrow-req)" />
  <rect x="1280" y="425" width="120" height="18" rx="4" fill="#ffffff" opacity="0.92"/>
  <text x="1340" y="438" font-size="11" font-weight="600" font-style="italic" fill="#475569" text-anchor="middle">Stage 4 (approved)</text>
  <polyline points="540,570 540,645" fill="none" stroke="#b45309" stroke-width="2" marker-end="url(#arrow-llm)" />
  <rect x="420" y="598" width="120" height="18" rx="4" fill="#ffffff" opacity="0.92"/>
  <text x="480" y="611" font-size="11" font-weight="600" font-style="italic" fill="#b45309" text-anchor="middle">consensus vote</text>
  <polyline points="850,570 850,605 680,605 680,645" fill="none" stroke="#b45309" stroke-width="2" marker-end="url(#arrow-llm)" />
  <rect x="660" y="598" width="120" height="18" rx="4" fill="#ffffff" opacity="0.92"/>
  <text x="720" y="611" font-size="11" font-weight="600" font-style="italic" fill="#b45309" text-anchor="middle">evaluator-optimizer</text>
  <polyline points="950,570 950,605 1150,605 1150,645" fill="none" stroke="#6d28d9" stroke-width="2" marker-end="url(#arrow-write)" />
  <rect x="1040" y="598" width="120" height="18" rx="4" fill="#ffffff" opacity="0.92"/>
  <text x="1100" y="611" font-size="11" font-weight="600" font-style="italic" fill="#6d28d9" text-anchor="middle">compile AST</text>
  <polyline points="130,570 130,845" fill="none" stroke="#0369a1" stroke-width="2" stroke-dasharray="5,4" marker-end="url(#arrow-read)" />
  <rect x="70" y="800" width="120" height="18" rx="4" fill="#ffffff" opacity="0.92"/>
  <text x="130" y="813" font-size="11" font-weight="600" font-style="italic" fill="#0369a1" text-anchor="middle">verify H-1B</text>
  <polyline points="610,570 610,845" fill="none" stroke="#6d28d9" stroke-width="2" marker-end="url(#arrow-write)" />
  <rect x="550" y="800" width="120" height="18" rx="4" fill="#ffffff" opacity="0.92"/>
  <text x="610" y="813" font-size="11" font-weight="600" font-style="italic" fill="#6d28d9" text-anchor="middle">persist score</text>
  <polyline points="980,570 980,845" fill="none" stroke="#0369a1" stroke-width="2" stroke-dasharray="5,4" marker-end="url(#arrow-read)" />
  <rect x="920" y="800" width="120" height="18" rx="4" fill="#ffffff" opacity="0.92"/>
  <text x="980" y="813" font-size="11" font-weight="600" font-style="italic" fill="#0369a1" text-anchor="middle">Multi-Hop GraphRAG</text>
  <polyline points="1350,570 1350,845" fill="none" stroke="#0369a1" stroke-width="2" stroke-dasharray="5,4" marker-end="url(#arrow-read)" />
  <rect x="1290" y="800" width="120" height="18" rx="4" fill="#ffffff" opacity="0.92"/>
  <text x="1350" y="813" font-size="11" font-weight="600" font-style="italic" fill="#0369a1" text-anchor="middle">session cookies</text>

  <!-- COMPONENT BOXES -->
  <!-- Box web_ui -->
  <rect x="80" y="115" width="430" height="95" rx="10" fill="#ffffff" stroke="#2563eb" stroke-width="1.8" filter="url(#shadow)" />
  <text x="295.0" y="153" font-size="15" font-weight="700" fill="#0f172a" text-anchor="middle">Mission Control 2.0 (Web &amp; D3)</text>
  <text x="295.0" y="177" font-size="12" font-weight="500" fill="#64748b" text-anchor="middle">FastAPI REST + Live SSE Telemetry + D3 Graph</text>
  <!-- Box cli_main -->
  <rect x="550" y="115" width="430" height="95" rx="10" fill="#ffffff" stroke="#2563eb" stroke-width="1.8" filter="url(#shadow)" />
  <text x="765.0" y="153" font-size="15" font-weight="700" fill="#0f172a" text-anchor="middle">Unified CLI Controller</text>
  <text x="765.0" y="177" font-size="12" font-weight="500" fill="#64748b" text-anchor="middle">Daemon, Scanner, Evaluator &amp; Playwright Submitter</text>
  <!-- Box telegram_hitl -->
  <rect x="1020" y="115" width="480" height="95" rx="10" fill="#ffffff" stroke="#2563eb" stroke-width="1.8" filter="url(#shadow)" />
  <text x="1260.0" y="153" font-size="15" font-weight="700" fill="#0f172a" text-anchor="middle">Telegram HITL Approval Bot</text>
  <text x="1260.0" y="177" font-size="12" font-weight="500" fill="#64748b" text-anchor="middle">Interactive Cards, PDF Previews &amp; Approval Signals</text>
  <!-- Box langgraph_dag -->
  <rect x="80" y="295" width="430" height="95" rx="10" fill="#ffffff" stroke="#059669" stroke-width="1.8" filter="url(#shadow)" />
  <text x="295.0" y="333" font-size="15" font-weight="700" fill="#0f172a" text-anchor="middle">LangGraph StateGraph DAG</text>
  <text x="295.0" y="357" font-size="12" font-weight="500" fill="#64748b" text-anchor="middle">5-Stage Typed Pipeline &amp; Conditional Routing</text>
  <!-- Box circuit_breaker -->
  <rect x="550" y="295" width="430" height="95" rx="10" fill="#ffffff" stroke="#059669" stroke-width="1.8" filter="url(#shadow)" />
  <text x="765.0" y="333" font-size="15" font-weight="700" fill="#0f172a" text-anchor="middle">Execution Circuit Breakers</text>
  <text x="765.0" y="357" font-size="12" font-weight="500" fill="#64748b" text-anchor="middle">Bounded Worker Threads, 45s Timeout Budgets</text>
  <!-- Box hitl_gate -->
  <rect x="1020" y="295" width="480" height="95" rx="10" fill="#ffffff" stroke="#059669" stroke-width="1.8" filter="url(#shadow)" />
  <text x="1260.0" y="333" font-size="15" font-weight="700" fill="#0f172a" text-anchor="middle">Dynamic interrupt() Gate</text>
  <text x="1260.0" y="357" font-size="12" font-weight="500" fill="#64748b" text-anchor="middle">Pre-Submission Checkpoint &amp; Command(resume) Engine</text>
  <!-- Box discovery_squad -->
  <rect x="70" y="475" width="335" height="95" rx="10" fill="#ffffff" stroke="#b45309" stroke-width="1.8" filter="url(#shadow)" />
  <text x="237.5" y="513" font-size="15" font-weight="700" fill="#0f172a" text-anchor="middle">Discovery Squad (9 Crawlers)</text>
  <text x="237.5" y="537" font-size="12" font-weight="500" fill="#64748b" text-anchor="middle">Deferred Tool Search &amp; USCIS H-1B Verification</text>
  <!-- Box eval_guard -->
  <rect x="435" y="475" width="335" height="95" rx="10" fill="#ffffff" stroke="#b45309" stroke-width="1.8" filter="url(#shadow)" />
  <text x="602.5" y="513" font-size="15" font-weight="700" fill="#0f172a" text-anchor="middle">7-Block Evaluator &amp; Work Auth</text>
  <text x="602.5" y="537" font-size="12" font-weight="500" fill="#64748b" text-anchor="middle">Multi-Model Consensus Voting &amp; Ghost-Job Filter</text>
  <!-- Box tailor_optimizer -->
  <rect x="800" y="475" width="335" height="95" rx="10" fill="#ffffff" stroke="#b45309" stroke-width="1.8" filter="url(#shadow)" />
  <text x="967.5" y="513" font-size="15" font-weight="700" fill="#0f172a" text-anchor="middle">GraphRAG Evaluator-Optimizer</text>
  <text x="967.5" y="537" font-size="12" font-weight="500" fill="#64748b" text-anchor="middle">3-Persona Critic &amp; Surgical Delta Patching</text>
  <!-- Box websurfer_sub -->
  <rect x="1165" y="475" width="355" height="95" rx="10" fill="#ffffff" stroke="#b45309" stroke-width="1.8" filter="url(#shadow)" />
  <text x="1342.5" y="513" font-size="15" font-weight="700" fill="#0f172a" text-anchor="middle">WebSurfer Agent &amp; FastPath</text>
  <text x="1342.5" y="537" font-size="12" font-weight="500" fill="#64748b" text-anchor="middle">AXTree + Set-of-Marks, Quiescence &amp; Form Healing</text>
  <!-- Box llm_gateway -->
  <rect x="80" y="645" width="780" height="105" rx="10" fill="#ffffff" stroke="#7c3aed" stroke-width="1.8" filter="url(#shadow)" />
  <text x="470.0" y="677" font-size="15" font-weight="700" fill="#0f172a" text-anchor="middle">LLM Gateway &amp; Model Tiering Router</text>
  <text x="470.0" y="697" font-size="12" font-weight="500" fill="#64748b" text-anchor="middle">Tiered Routing: Gemini Flash (S1/2/4) &amp; Gemini Pro (S3)</text>
  <!-- Box pdf_compiler -->
  <rect x="900" y="645" width="620" height="105" rx="10" fill="#ffffff" stroke="#7c3aed" stroke-width="1.8" stroke-dasharray="6,4" filter="url(#shadow)" />
  <text x="1210.0" y="683" font-size="15" font-weight="700" fill="#0f172a" text-anchor="middle">Deterministic Compiler &amp; Page Gate</text>
  <text x="1210.0" y="707" font-size="12" font-weight="500" fill="#64748b" text-anchor="middle">ReportLab / Typst Engine + Strict 1-Page / 2-Page Layout Bounds</text>
  <!-- Cylinder core_mem -->
  <g filter="url(#shadow)">
    <rect x="70" y="859" width="340" height="106" rx="6" fill="#ffffff" stroke="#0284c7" stroke-width="1.8" />
    <ellipse cx="240.0" cy="965" rx="170.0" ry="14" fill="#ffffff" stroke="#0284c7" stroke-width="1.8" />
    <ellipse cx="240.0" cy="859" rx="170.0" ry="14" fill="#f0f9ff" stroke="#0284c7" stroke-width="1.8" />
  </g>
  <text x="240.0" y="893" font-size="15" font-weight="700" fill="#0f172a" text-anchor="middle">Core Memory (In-Context RAM)</text>
  <text x="240.0" y="917" font-size="12" font-weight="500" fill="#64748b" text-anchor="middle">Candidate Constraints, Floor Salary &amp; Dynamic Tool API</text>
  <!-- Cylinder recall_mem -->
  <g filter="url(#shadow)">
    <rect x="440" y="859" width="340" height="106" rx="6" fill="#ffffff" stroke="#0284c7" stroke-width="1.8" />
    <ellipse cx="610.0" cy="965" rx="170.0" ry="14" fill="#ffffff" stroke="#0284c7" stroke-width="1.8" />
    <ellipse cx="610.0" cy="859" rx="170.0" ry="14" fill="#f0f9ff" stroke="#0284c7" stroke-width="1.8" />
  </g>
  <text x="610.0" y="893" font-size="15" font-weight="700" fill="#0f172a" text-anchor="middle">Recall Memory (SQLite Ledger)</text>
  <text x="610.0" y="917" font-size="12" font-weight="500" fill="#64748b" text-anchor="middle">Append-Only Applications, Q&amp;A Cache, SqliteSaver WAL</text>
  <!-- Cylinder archival_mem -->
  <g filter="url(#shadow)">
    <rect x="810" y="859" width="340" height="106" rx="6" fill="#ffffff" stroke="#0284c7" stroke-width="1.8" />
    <ellipse cx="980.0" cy="965" rx="170.0" ry="14" fill="#ffffff" stroke="#0284c7" stroke-width="1.8" />
    <ellipse cx="980.0" cy="859" rx="170.0" ry="14" fill="#f0f9ff" stroke="#0284c7" stroke-width="1.8" />
  </g>
  <text x="980.0" y="893" font-size="15" font-weight="700" fill="#0f172a" text-anchor="middle">Archival Memory (GraphRAG)</text>
  <text x="980.0" y="917" font-size="12" font-weight="500" fill="#64748b" text-anchor="middle">NetworkX Knowledge Graph, STAR Stories &amp; Impact Metrics</text>
  <!-- Cylinder browser_profile -->
  <g filter="url(#shadow)">
    <rect x="1180" y="859" width="340" height="106" rx="6" fill="#ffffff" stroke="#0284c7" stroke-width="1.8" />
    <ellipse cx="1350.0" cy="965" rx="170.0" ry="14" fill="#ffffff" stroke="#0284c7" stroke-width="1.8" />
    <ellipse cx="1350.0" cy="859" rx="170.0" ry="14" fill="#f0f9ff" stroke="#0284c7" stroke-width="1.8" />
  </g>
  <text x="1350.0" y="893" font-size="15" font-weight="700" fill="#0f172a" text-anchor="middle">Playwright Browser Profile</text>
  <text x="1350.0" y="917" font-size="12" font-weight="500" fill="#64748b" text-anchor="middle">Persistent Session Cookies, Storage State &amp; Evasions</text>

  <!-- LLM GATEWAY CHIPS -->
  <rect x="100" y="710" width="160" height="28" rx="6" fill="#f5f3ff" stroke="#7c3aed" stroke-width="1.2" />
  <text x="180.0" y="724" font-size="11" font-weight="700" fill="#6d28d9" text-anchor="middle">Gemini 2.5 Flash</text>
  <text x="180.0" y="734" font-size="9" font-weight="500" fill="#64748b" text-anchor="middle">Low-Latency Tier</text>
  <rect x="280" y="710" width="160" height="28" rx="6" fill="#f5f3ff" stroke="#7c3aed" stroke-width="1.2" />
  <text x="360.0" y="724" font-size="11" font-weight="700" fill="#6d28d9" text-anchor="middle">Gemini 2.5 Pro</text>
  <text x="360.0" y="734" font-size="9" font-weight="500" fill="#64748b" text-anchor="middle">Deep Reasoning Tier</text>
  <rect x="460" y="710" width="160" height="28" rx="6" fill="#f5f3ff" stroke="#7c3aed" stroke-width="1.2" />
  <text x="540.0" y="724" font-size="11" font-weight="700" fill="#6d28d9" text-anchor="middle">Qwen 2.5 72B</text>
  <text x="540.0" y="734" font-size="9" font-weight="500" fill="#64748b" text-anchor="middle">Alibaba Open Gateway</text>
  <rect x="640" y="710" width="180" height="28" rx="6" fill="#f5f3ff" stroke="#7c3aed" stroke-width="1.2" />
  <text x="730.0" y="724" font-size="11" font-weight="700" fill="#6d28d9" text-anchor="middle">OpenRouter / DeepSeek</text>
  <text x="730.0" y="734" font-size="9" font-weight="500" fill="#64748b" text-anchor="middle">Multi-Provider Fallback</text>

  <!-- LEGEND (2x2 Grid) -->
  <rect x="1060" y="12" width="490" height="56" rx="8" fill="#ffffff" stroke="#e2e8f0" stroke-width="1.2" filter="url(#shadow)" />
  <line x1="1076" y1="32" x2="1096" y2="32" stroke="#475569" stroke-width="2.2" />
  <text x="1102" y="36" font-size="12" font-weight="600" fill="#0f172a">Control &amp; State Flow</text>
  <line x1="1311" y1="32" x2="1331" y2="32" stroke="#b45309" stroke-width="2.2" />
  <text x="1337" y="36" font-size="12" font-weight="600" fill="#0f172a">Tiered LLM Call</text>
  <line x1="1076" y1="56" x2="1096" y2="56" stroke="#6d28d9" stroke-width="2.2" />
  <text x="1102" y="60" font-size="12" font-weight="600" fill="#0f172a">State Snapshot / Write</text>
  <line x1="1311" y1="56" x2="1331" y2="56" stroke="#0369a1" stroke-width="2.2" stroke-dasharray="4,3" />
  <text x="1337" y="60" font-size="12" font-weight="600" fill="#0f172a">GraphRAG / Read Query</text>
</svg>